<svg version="1.1" id="hat-owl" xmlns="http://www.w3.org/2000/svg" xmlns:xlink="http://www.w3.org/1999/xlink" x="0px" y="0px"
width="100%" height="100%" viewBox="123.5 262.5 185 302" enable-background="new 123.5 262.5 185 302" xml:space="preserve">
    <g class="owly">
        <path display="none" fill="#DBCB89" d="M-249.238,235.528c1.843,0,1.949,12.287,1.545,31.947
        c-0.453,22.05-1.545,53.374-1.545,87.039c0,3.217,0.044,6.581,0.1,10.066c-8.58,8.581-36.489,17.217-65.48,20.445
        c-7.665,0.861-15.408,1.341-22.882,1.341s-15.217-0.48-22.881-1.341c-28.993-3.229-56.901-11.865-65.481-20.445
        c0.056-3.485,0.1-6.849,0.1-10.066c0-34.68-1.16-66.875-1.584-89.007c-0.355-18.509-0.196-29.979,1.584-29.979
        c3.911,0,10.055,3.352,20.669,20.11c10.614,16.759,31.841,14.524,67.593,14.524s56.979,2.235,67.593-14.524
        C-259.293,238.88-253.148,235.528-249.238,235.528z"/>
        <path display="none" fill="#BC9345" d="M-247.641,541.497c0.338-18.117,0.162-29.313-1.597-29.313
        c-3.911,0-10.055,3.353-20.669,20.11c-10.614,16.758-31.841,14.524-67.593,14.524s-56.979,2.233-67.593-14.524
        c-10.614-16.758-16.758-20.11-20.669-20.11c-1.886,0-1.953,12.87-1.516,33.343c0.469,21.966,1.516,52.683,1.516,85.645
        c0,3.218-0.044,6.58-0.1,10.065c-0.226,12.504-0.739,26.613-0.738,41.265c0.002,24.462,1.437,50.428,8.033,72.929
        c10.155,34.726,32.612,61.203,81.067,61.203s70.911-26.479,81.079-61.203c6.904-23.576,8.146-50.958,8.013-76.428
        c-0.07-13.395-0.521-26.26-0.729-37.766c-0.056-3.485-0.1-6.849-0.1-10.065C-249.238,596.141-248.055,563.646-247.641,541.497z"/>
        <path display="none" fill="#DBCB89" d="M-48.324,536c-0.01-6.277-0.235-12.198-0.546-17.546c-0.107-1.757-0.213-3.447-0.33-5.069
        c-2.913-40.865-9.226-103.017-21.365-103.017s-12.625,30.59-20.394,33.504c-7.769,2.913-36.874,5.72-46.614,5.826
        c-27.677,0.282-52.684,2.671-55.354,0c-2.671-2.67-22.336-28.162-28.648-28.162c-3.6,0-6.41,15.001-6.72,37.799
        c-0.233,17.18,0.953,38.788,4.292,61.741c0.106,0.71,0.204,1.418,0.31,2.127h0.01c7.593,51.084,24.449,122.157,92.018,122.54
        c2.95,0.017,5.997-0.103,9.145-0.362C-58.548,640.085-48.256,579.5-48.324,536z"/>
        <path display="none" fill="#DBCB89" d="M-466.219,845.594c-0.092-13.709-1.934-27.901-3.872-29.84
        c-4.227-2.645-8.629-4.898-13.3-6.8c-10.52-34.06-31.436-47.028-49.665-51.885c3.214-4.601,5.095-10.189,5.095-16.235
        c0-15.696-12.721-28.418-28.418-28.418c-15.697,0-28.418,12.722-28.418,28.418c0,6.046,1.88,11.636,5.095,16.235
        c-18.229,4.846-39.134,17.825-49.665,51.885c-4.671,1.901-9.073,4.155-13.3,6.8c-1.828,1.828-3.426,14.925-3.542,28.251
        c-0.13,14.924,1.598,30.136,6.942,30.136h0.514c0,0-0.4,8.765-0.514,14.467c-0.94,47.382,5.198,92.056,14.685,105.405
        c13.951,19.636,41.335,19.118,68.203,19.118s54.253,0.518,68.204-19.118c9.486-13.351,15.625-58.023,14.684-105.405
        c-0.113-5.702-0.591-15.909-0.591-15.909s0.905-0.17,1.24-0.17C-467.783,872.527-466.127,859.303-466.219,845.594z"/>
        <path display="none" fill="#9CD6C4" d="M-466.217,518.999c-0.065-13.809-1.921-28.212-3.874-30.165
        c-4.227-2.645-8.629-4.898-13.3-6.8c-10.52-34.061-31.436-47.028-49.665-51.886c3.214-4.6,5.095-10.188,5.095-16.234
        c0-15.697-12.721-28.418-28.418-28.418c-15.697,0-28.418,12.721-28.418,28.418c0,6.046,1.88,11.636,5.095,16.234
        c-18.229,4.846-39.134,17.825-49.665,51.886c-4.671,1.9-9.073,4.155-13.3,6.8c-1.916,1.916-3.579,16.205-3.549,30.166
        c0.031,14.282,1.833,28.221,6.949,28.221h0.514l0.147-2.696c2.531-8.712,8.38-14.57,16.048-18.487
        c5.425-2.79,11.77-4.608,18.508-5.787c4.805-0.837,9.807-1.354,14.809-1.653c6.355-0.393,12.721-0.454,18.683-0.424
        c5.095,0.021,9.9,0.114,14.178,0.114c4.278,0,9.083-0.093,14.178-0.114c5.963-0.03,12.328,0.031,18.683,0.424
        c5.002,0.3,10.003,0.816,14.809,1.653c6.738,1.179,13.083,2.997,18.508,5.787c7.667,3.917,13.517,9.775,16.048,18.487l0.071,1.254
        c0,0,0.905-0.169,1.24-0.169C-467.823,545.608-466.153,532.592-466.217,518.999z"/>
        <path display="none" fill="#E5E3C0" d="M-466.219,325.73c-0.092-13.709-1.934-27.902-3.872-29.84c-4.227-2.646-8.629-4.898-13.3-6.8
        c-18.177-7.451-40.519-9.734-72.988-9.734c-32.469,0-54.811,2.284-72.988,9.734c-4.671,1.901-9.073,4.154-13.3,6.8
        c-1.97,1.971-3.673,17.032-3.542,31.362c0.127,13.854,1.969,27.024,6.942,27.024h0.514l0.147-2.697
        c2.531-8.711,8.38-14.57,16.048-18.487c-0.031,0.506-0.042,1.013-0.042,1.529c0,14.839,12.029,26.868,26.868,26.868
        s26.868-12.029,26.868-26.868c0-3.307-0.599-6.469-1.695-9.394c5.095,0.021,9.9,0.114,14.178,0.114
        c4.278,0,9.083-0.093,14.178-0.114c-1.095,2.925-1.695,6.086-1.695,9.394c0,14.839,12.029,26.868,26.868,26.868
        c14.839,0,26.868-12.029,26.868-26.868c0-0.517-0.01-1.023-0.041-1.529c7.667,3.917,13.517,9.775,16.048,18.487l0.071,1.254
        c0,0,0.905-0.169,1.24-0.169C-467.783,352.664-466.127,339.439-466.219,325.73z"/>
        <path display="none" fill="#5B5221" d="M-466.219,240.005c-0.092-13.709-1.934-27.902-3.872-29.84
        c-4.227-2.646-8.629-4.899-13.3-6.8c-18.177-7.451-40.519-9.734-72.988-9.734c-32.469,0-54.811,2.284-72.988,9.734
        c-4.671,1.901-9.073,4.154-13.3,6.8c-1.935,1.935-3.612,16.493-3.547,30.586c0.065,14.133,1.882,27.799,6.947,27.799h0.514
        l0.147-2.697c2.531-8.711,8.38-14.57,16.048-18.487c5.425-2.791,11.77-4.609,18.508-5.787c-1.715,1.953-2.759,4.516-2.759,7.316
        c0,6.118,4.96,11.078,11.078,11.078c6.117,0,11.078-4.96,11.078-11.078c0-3.7-1.809-6.965-4.588-8.97
        c6.355-0.392,12.721-0.454,18.683-0.423c5.095,0.021,9.9,0.113,14.178,0.113c4.278,0,9.083-0.093,14.178-0.113
        c5.963-0.031,12.328,0.031,18.683,0.423c-2.78,2.005-4.588,5.271-4.588,8.97c0,6.118,4.96,11.078,11.078,11.078
        c6.118,0,11.078-4.96,11.078-11.078c0-2.8-1.043-5.363-2.759-7.316c6.738,1.178,13.083,2.997,18.508,5.787
        c7.667,3.917,13.517,9.776,16.048,18.487l0.071,1.254c0,0,0.905-0.169,1.24-0.169C-467.783,266.938-466.127,253.714-466.219,240.005
        z"/>
        <path display="none" fill="#7FBB7E" d="M-540.685,158.977c-5.125,7.368-13.661,12.184-23.323,12.184
        c-9.662,0-18.198-4.816-23.323-12.184c-3.214-4.599-5.095-10.189-5.095-16.234c0-15.697,12.721-28.418,28.418-28.418
        c15.697,0,28.418,12.721,28.418,28.418C-535.589,148.788-537.47,154.378-540.685,158.977z M-466.218,106.251
        c-0.078-13.764-1.927-28.072-3.873-30.019c-4.227-2.646-8.629-4.898-13.3-6.799c-18.177-7.451-40.519-9.735-72.988-9.735
        c-32.469,0-54.811,2.284-72.988,9.735c-4.671,1.901-9.073,4.154-13.3,6.799c-1.938,1.938-3.617,16.535-3.547,30.646
        c0.07,14.111,1.889,27.74,6.947,27.74h0.514l0.147-2.697c2.531-8.711,8.38-14.57,16.048-18.487
        c5.425-2.791,11.77-4.609,18.508-5.787c4.805-0.837,9.807-1.354,14.809-1.654c6.355-0.393,12.721-0.455,18.683-0.423
        c5.095,0.021,9.9,0.114,14.178,0.114c4.278,0,9.083-0.093,14.178-0.114c5.963-0.031,12.328,0.031,18.683,0.423
        c5.002,0.3,10.003,0.816,14.809,1.654c6.738,1.178,13.083,2.997,18.508,5.787c7.667,3.917,13.517,9.776,16.048,18.487l0.071,1.254
        c0,0,0.905-0.169,1.24-0.169C-467.805,133.007-466.141,119.896-466.218,106.251z"/>
        <path display="none" fill="#E95846" d="M-613.577,17.63c0.21,0.635-0.008,1.331-0.545,1.731l-14.809,11.026
        c-0.549,0.408-1.304,0.408-1.853,0l-14.808-11.026c-0.39-0.291-0.612-0.737-0.624-1.204c-0.004-0.176,0.021-0.354,0.079-0.527
        c0.209-0.636,0.801-1.063,1.471-1.063h29.617C-614.378,16.568-613.787,16.995-613.577,17.63z M-466.215,16.568h-0.007v0.007h0.007
        V16.568z"/>
        <path display="none" fill="#D6A64F" d="M-480.345,569.096c0.108,5.435,0.123,10.831,0.05,16.15
        c-0.562,41.063-6.335,77.435-14.734,89.254c-13.951,19.635-41.335,19.118-68.203,19.118c-26.868,0-54.253,0.517-68.204-19.118
        c-8.364-11.771-14.125-47.887-14.727-88.74c-0.081-5.484-0.069-11.056,0.042-16.664c12.163,8.258,49.303,18.084,82.888,18.084
        S-492.508,577.354-480.345,569.096z M-466.215,645.74h-0.007v0.008h0.007V645.74z"/>
        <path display="none" fill="#E95846" d="M-396.379,96.89c0.277,0.584,0.192,1.279-0.217,1.779l-13.966,17.072
        c-0.318,0.39-0.794,0.614-1.297,0.614s-0.979-0.225-1.297-0.614l-13.966-17.072c-0.238-0.291-0.366-0.648-0.377-1.011
        c-0.008-0.26,0.045-0.524,0.161-0.768c0.277-0.584,0.868-0.958,1.514-0.958h13.965h13.966
        C-397.247,95.932-396.656,96.306-396.379,96.89z M-247.5,104.932h-0.007v0.007h0.007V104.932z"/>
        <path display="none" fill="#5B5221" d="M-415.522,136.952c6.614,0,11.977,5.362,11.977,11.977c0,6.614-5.363,11.977-11.977,11.977
        s-11.978-5.363-11.978-11.977C-427.5,142.314-422.136,136.952-415.522,136.952z M-394.234,148.928
        c0,6.614,5.364,11.978,11.978,11.978c6.614,0,11.977-5.363,11.977-11.978c0-6.614-5.362-11.977-11.977-11.977
        C-388.871,136.952-394.234,142.314-394.234,148.928z M-247.5,148.925h-0.007v0.007h0.007V148.925z"/>
        <path display="none" fill="#E1DFBD" d="M-398.452,168.142c16.044,0,29.048,13.004,29.048,29.048
        c0,16.043-13.004,29.048-29.048,29.048c-16.043,0-29.048-13.005-29.048-29.048C-427.5,181.146-414.495,168.142-398.452,168.142z
        M-324.714,168.142c16.044,0,29.048,13.004,29.048,29.048c0,16.043-13.004,29.048-29.048,29.048
        c-16.043,0-29.048-13.005-29.048-29.048C-353.762,181.146-340.757,168.142-324.714,168.142z M-247.5,192.072h-0.007v0.007h0.007
        V192.072z"/>
        <path display="none" fill="#D6A64F" d="M-267.417,400.866c-5.048,33.005-10.018,77.642-26.483,111.317
        c-22.03-16.563-47.496-67.341-41.511-102.236C-306.292,411.667-277.324,407.873-267.417,400.866z M-427.5,401.11
        c5.632,32.911,11.39,77.452,28.46,110.831c21.722-16.95,46.287-68.168,39.685-102.953
        C-388.441,411.221-417.471,407.941-427.5,401.11z M-247.5,444.982h-0.007v0.007h0.007V444.982z"/>
        <path display="none" fill="#E95846" d="M-198.463,171.781l-13.11,19.646c-0.254,0.38-0.674,0.62-1.131,0.646
        c-0.456,0.025-0.9-0.167-1.195-0.517l-14.082-16.723c-0.229-0.273-0.347-0.614-0.342-0.958c0.002-0.176,0.037-0.353,0.105-0.522
        c0.201-0.501,0.66-0.848,1.196-0.906l27.191-2.923c0.563-0.061,1.108,0.208,1.402,0.693
        C-198.136,170.702-198.149,171.31-198.463,171.781z M-48.323,180.792h-0.007v0.007h0.007V180.792z"/>
        <path display="none" fill="#5B5221" d="M-217.912,198.13c5.749,0,10.41,4.661,10.41,10.41s-4.661,10.411-10.41,10.411
        s-10.411-4.662-10.411-10.411S-223.661,198.13-217.912,198.13z M-199.408,208.54c0,5.749,4.662,10.411,10.411,10.411
        s10.411-4.662,10.411-10.411s-4.662-10.41-10.411-10.41S-199.408,202.791-199.408,208.54z M-48.323,208.537h-0.007v0.007h0.007
        V208.537z"/>
        <path display="none" fill="#E1DFBD" d="M-203.074,229.669c13.945,0,25.249,11.303,25.249,25.249c0,13.945-11.304,25.25-25.249,25.25
        c-13.945,0-25.25-11.304-25.25-25.25C-228.323,240.973-217.019,229.669-203.074,229.669z M-138.979,229.669
        c13.946,0,25.25,11.303,25.25,25.249c0,13.945-11.304,25.25-25.25,25.25c-13.945,0-25.25-11.304-25.25-25.25
        C-164.229,240.973-152.925,229.669-138.979,229.669z M-48.323,254.915h-0.007v0.007h0.007V254.915z"/>
        <path display="none" fill="#E5AEA9" d="M-48.87,383.561h-0.009c-66.668,35.262-137.726,26.9-174.803,4.749h-0.01
        c-0.106-0.709-0.204-1.417-0.31-2.127c-3.238-22.264-4.452-43.263-4.309-60.183c0.2-23.671,3.056-39.358,6.737-39.358
        c6.313,0,25.978,25.492,28.648,28.163c2.67,2.67,27.677,0.282,55.354,0c9.741-0.106,38.845-2.914,46.614-5.827
        c7.769-2.914,8.254-33.504,20.394-33.504c9.21,0,15.066,35.775,18.628,70.887c1.133,11.168,2.034,22.269,2.737,32.13
        C-49.083,380.113-48.977,381.803-48.87,383.561z M-48.323,300.886h-0.007v0.007h0.007V300.886z"/>
        <g>
        <path fill="#D6A64F" d="M299.5,368.5c-4.09-2.56-8.35-4.74-12.87-6.58c-10.18-32.96-30.42-45.51-48.06-50.21
        c3.11-4.45,4.93-9.86,4.93-15.71c0-15.19-12.31-27.5-27.5-27.5s-27.5,12.31-27.5,27.5c0,5.85,1.82,11.26,4.93,15.71
        c-17.64,4.69-37.87,17.25-48.06,50.21c-4.52,1.84-8.78,4.02-12.87,6.58c-3.75,3.75-6.5,56.5,3.29,56.5
        c0.18-0.9,0.39-1.77,0.64-2.61c-0.32,5.54-0.53,11.092-0.64,16.61c-0.91,45.85,5.03,89.08,14.21,102c13.5,19,40,18.5,66,18.5
        s52.5,0.5,66-18.5c9.18-12.92,15.12-56.15,14.21-102c-0.11-5.52-0.32-11.07-0.64-16.61c0.25,0.842,0.46,1.71,0.64,2.61
        C306,425,303.25,372.25,299.5,368.5z"/>
        <g>
        <path fill="#D0A24D" d="M215.64,550.05c-52.08,0-66.19-16.39-74.46-35.188c2.34,12.04,5.35,21.26,8.82,26.14
        c13.5,19,40,18.5,66,18.5s52.5,0.5,66-18.5c3.47-4.89,6.48-14.1,8.83-26.15h-0.01C283.2,531.99,267.74,550.05,215.64,550.05z"/>
        <path fill="#D0A24D" d="M299.5,368.5c-4.09-2.56-8.35-4.74-12.87-6.58c-10.18-32.96-30.42-45.51-48.06-50.21
        c3.11-4.45,4.93-9.86,4.93-15.71c0-15.19-12.31-27.5-27.5-27.5s-27.5,12.31-27.5,27.5c0,5.85,1.82,11.26,4.93,15.71
        c-17.64,4.69-37.87,17.25-48.06,50.21c-4.52,1.84-8.78,4.02-12.87,6.58c-3.75,3.75-6.5,56.5,3.29,56.5
        c0.18-0.9,0.39-1.77,0.64-2.61c-0.32,5.54-0.53,11.092-0.64,16.61c-0.03,1.78-0.06,3.55-0.07,5.32
        c23.08,23.08,106.81,31.71,159.85,1.39h0.72c-0.01-2.229-0.04-4.47-0.08-6.71c-0.11-5.52-0.32-11.07-0.64-16.61
        c0.25,0.842,0.46,1.71,0.64,2.61C306,425,303.25,372.25,299.5,368.5z"/>
        </g>
        <path fill="#DBCB89" d="M295.57,422.39c-2.45-8.43-8.11-14.1-15.53-17.89c-5.25-2.7-11.39-4.46-17.91-5.6
        c-4.65-0.811-9.49-1.311-14.33-1.601c-6.15-0.38-12.31-0.439-18.08-0.41c-4.93,0.021-9.58,0.11-13.72,0.11s-8.79-0.09-13.72-0.11
        c-5.77-0.029-11.93,0.03-18.08,0.41c-4.84,0.29-9.68,0.79-14.33,1.601c-6.52,1.14-12.66,2.899-17.91,5.6
        c-7.42,3.79-13.08,9.46-15.53,17.89c-0.32,5.54-0.53,11.092-0.64,16.61c11.77,7.99,47.71,17.5,80.21,17.5s68.44-9.51,80.21-17.5
        C296.1,433.48,295.89,427.93,295.57,422.39z"/>
        <path fill="#9CD6C4" d="M299.5,368.5c-4.09-2.56-8.35-4.74-12.87-6.58c-10.18-32.96-30.42-45.51-48.06-50.21
        c3.11-4.45,4.93-9.86,4.93-15.71c0-15.19-12.31-27.5-27.5-27.5s-27.5,12.31-27.5,27.5c0,5.85,1.82,11.26,4.93,15.71
        c-17.64,4.69-37.87,17.25-48.06,50.21c-4.52,1.84-8.78,4.02-12.87,6.58c-3.75,3.75-6.5,56.5,3.29,56.5
        c0.18-0.9,0.39-1.77,0.64-2.61c2.45-8.43,8.11-14.1,15.53-17.89c5.25-2.7,11.39-4.46,17.91-5.6c4.65-0.811,9.49-1.311,14.33-1.601
        c6.15-0.38,12.31-0.439,18.08-0.41c4.93,0.021,9.58,0.11,13.72,0.11s8.79-0.09,13.72-0.11c5.77-0.029,11.93,0.03,18.08,0.41
        c4.84,0.29,9.68,0.79,14.33,1.601c6.52,1.14,12.66,2.899,17.91,5.6c7.42,3.79,13.08,9.46,15.53,17.89
        c0.25,0.842,0.46,1.71,0.64,2.61C306,425,303.25,372.25,299.5,368.5z"/>
        <g>
        <g id="XMLID_5_">
        <path fill="#94CBBB" d="M299.5,368.5c3.75,3.75,6.5,56.5-3.29,56.5c-0.18-0.9-0.39-1.77-0.64-2.61
        c-2.45-8.43-8.11-14.1-15.53-17.89c-5.25-2.7-11.39-4.46-17.91-5.6c-4.65-0.811-9.49-1.311-14.33-1.601
        c-6.15-0.38-12.31-0.439-18.08-0.41c-4.93,0.021-9.58,0.11-13.72,0.11s-8.79-0.09-13.72-0.11c-5.77-0.029-11.93,0.03-18.08,0.41
        c-4.84,0.29-9.68,0.79-14.33,1.601c-6.52,1.14-12.66,2.899-17.91,5.6c-7.42,3.79-13.08,9.46-15.53,17.89
        c-0.25,0.842-0.46,1.71-0.64,2.61c-9.79,0-7.04-52.75-3.29-56.5c4.09-2.56,8.35-4.74,12.87-6.58c0.52-1.67,1.06-3.28,1.62-4.85
        H147c35.6-9.77,84.09-15,138,0h0.01c0.56,1.56,1.1,3.18,1.62,4.85C291.15,363.76,295.41,365.94,299.5,368.5z"/>
        <path fill="#9CD6C4" d="M243.38,313.18c15.47,5.34,32.03,17.31,41.62,43.89c-53.91-15-102.4-9.77-138,0
        c9.57-26.51,26.06-38.5,41.5-43.85c12.87,12.86,34.32,25.24,54.86,0L243.38,313.18z"/>
        <path fill="#94CBBB" d="M243.38,313.18l-0.02,0.04c-20.54,25.24-41.99,12.86-54.86,0c1.66-0.58,3.31-1.08,4.93-1.51
        c-3.11-4.45-4.93-9.86-4.93-15.71c0-15.19,12.31-27.5,27.5-27.5s27.5,12.31,27.5,27.5c0,5.85-1.82,11.26-4.93,15.71
        C240.15,312.13,241.76,312.62,243.38,313.18z"/>
        </g>
        </g>
        <path fill="#7FBB7E" d="M238.57,311.71c-4.96,7.13-13.22,11.79-22.57,11.79s-17.61-4.66-22.57-11.79
        c-3.11-4.45-4.93-9.86-4.93-15.71c0-15.19,12.31-27.5,27.5-27.5s27.5,12.31,27.5,27.5C243.5,301.85,241.68,307.26,238.57,311.71z"
        />
        <g>
        <g id="XMLID_4_">
        <path fill="#79B278" d="M243.06,300.89c-0.7,3.97-2.27,7.64-4.49,10.82c-4.96,7.13-13.22,11.79-22.57,11.79
        s-17.61-4.66-22.57-11.79c-1.46-2.1-2.65-4.41-3.48-6.88C202.5,317.38,227.51,325.17,243.06,300.89z"/>
        <path fill="#8CC086" d="M216,268.5c8.89,0,16.8,4.22,21.82,10.76h-0.01c-24.3-13.229-44.7,1.54-47.85,7.89
        C193.64,276.3,203.91,268.5,216,268.5z"/>
        </g>
        </g>
        <path fill="#7FBB7E" d="M286.63,361.92c4.52,1.84,8.78,4.02,12.87,6.58c3.75,3.75,6.5,56.5-3.29,56.5
        c-0.18-0.9-0.39-1.77-0.64-2.61c-2.45-8.43-8.11-14.1-15.53-17.89c-5.25-2.7-11.39-4.46-17.91-5.6
        c-4.65-0.811-9.49-1.311-14.33-1.601c-6.15-0.38-12.31-0.439-18.08-0.41c-4.93,0.021-9.58,0.11-13.72,0.11s-8.79-0.09-13.72-0.11
        c-5.77-0.029-11.93,0.03-18.08,0.41c-4.84,0.29-9.68,0.79-14.33,1.601c-6.52,1.14-12.66,2.899-17.91,5.6
        c-7.42,3.79-13.08,9.46-15.53,17.89c-0.25,0.842-0.46,1.71-0.64,2.61c-9.79,0-7.04-52.75-3.29-56.5c4.09-2.56,8.35-4.74,12.87-6.58
        c17.59-7.21,39.21-9.42,70.63-9.42S269.04,354.71,286.63,361.92z"/>
        <g>
        <g id="XMLID_3_">
        <path fill="#8CC086" d="M299.5,368.5c0.96,0.96,1.86,5.16,2.49,10.87c-7.49-7.49-22.42-19.85-85.99-19.85
        c-61.61,0-84.67,13.75-86.05,20.35c0.64-5.96,1.56-10.38,2.55-11.37c4.09-2.56,8.35-4.74,12.87-6.58
        c17.59-7.21,39.21-9.42,70.63-9.42s53.04,2.21,70.63,9.42C291.15,363.76,295.41,365.94,299.5,368.5z"/>
        <path fill="#79B278" d="M293.21,407c4.77,4.77,9.7-2.26,9.72-9.67c0,13.95-1.73,27.67-6.72,27.67c-0.18-0.9-0.39-1.77-0.64-2.61
        c-2.45-8.43-8.11-14.1-15.53-17.89c-5.25-2.7-11.39-4.46-17.91-5.6c-4.65-0.811-9.49-1.311-14.33-1.601
        c-6.15-0.38-12.31-0.439-18.08-0.41c-4.93,0.021-9.58,0.11-13.72,0.11s-8.79-0.09-13.72-0.11c-5.77-0.029-11.93,0.03-18.08,0.41
        c-4.84,0.29-9.68,0.79-14.33,1.601c-6.52,1.14-12.66,2.899-17.91,5.6c-7.42,3.79-13.08,9.46-15.53,17.89
        c-0.25,0.842-0.46,1.71-0.64,2.61c-4.88,0-6.64-13.12-6.72-26.75c0.16,5.08,5.21,13.44,9.9,8.75
        c4.72-4.72,18.52-16.34,76.96-16.34C274.37,390.66,288.34,402.13,293.21,407z"/>
        </g>
        </g>
        <path fill="#FAF3E6" d="M184.2,397.3c-4.84,0.29-9.68,0.79-14.33,1.601c-6.52,1.14-12.66,2.899-17.91,5.6
        c-0.03,0.49-0.04,0.98-0.04,1.48c0,14.359,11.64,26,26,26s26-11.642,26-26c0-3.2-0.58-6.261-1.64-9.091
        C196.51,396.86,190.35,396.92,184.2,397.3z"/>
        <path fill="#FAF3E6" d="M280.04,404.5c-5.25-2.7-11.39-4.46-17.91-5.6c-4.65-0.811-9.49-1.311-14.33-1.601
        c-6.15-0.38-12.31-0.439-18.08-0.41c-1.06,2.83-1.64,5.891-1.64,9.091c0,14.359,11.64,26,26,26s26-11.642,26-26
        C280.08,405.48,280.07,404.99,280.04,404.5z"/>
        <g>
            <path class="pupil bottom" fill="#5B5221" d="M184.2,397.3c2.69,1.94,4.44,5.101,4.44,8.681c0,5.92-4.8,10.72-10.72,10.72s-10.72-4.8-10.72-10.72
            c0-2.711,1.01-5.19,2.67-7.08C174.52,398.09,179.36,397.59,184.2,397.3z"/>
            <path class="pupil bottom" fill="#5B5221" d="M262.13,398.9c1.66,1.89,2.67,4.369,2.67,7.08c0,5.92-4.8,10.72-10.72,10.72s-10.72-4.8-10.72-10.72
            c0-3.58,1.75-6.74,4.44-8.681C252.64,397.59,257.48,398.09,262.13,398.9z"/>
            <g>
            <g id="XMLID_1_">
            <path class="pupil top"fill="#554C1D" d="M184.2,397.3c2.02,1.46,3.51,3.61,4.12,6.101c-8.44,0.63-15.35,1.569-21.12,2.779c0-0.069,0-0.13,0-0.199
            c0-2.711,1.01-5.19,2.67-7.08C174.52,398.09,179.36,397.59,184.2,397.3z"/>
            <path class="pupil top"fill="#554C1D" d="M262.13,398.9c1.66,1.89,2.67,4.369,2.67,7.08c0,0.079,0,0.159,0,0.239
            c-5.67-1.26-12.52-2.229-21.12-2.85c0.62-2.48,2.11-4.62,4.12-6.07C252.64,397.59,257.48,398.09,262.13,398.9z"/>
        </g>
        <path fill="#EFEDC8" d="M169.87,398.9c-1.66,1.89-2.67,4.369-2.67,7.08c0,0.069,0,0.13,0,0.199
        c-6.05,1.28-10.84,2.851-14.82,4.65c-0.3-1.57-0.46-3.19-0.46-4.85c0-0.5,0.01-0.99,0.04-1.48
        C157.21,401.8,163.35,400.04,169.87,398.9z"/>
        <path fill="#EFEDC8" d="M202.28,396.89c0.69,1.841,1.17,3.771,1.42,5.771c-5.63,0.14-10.74,0.39-15.38,0.74
        c-0.61-2.49-2.1-4.641-4.12-6.101C190.35,396.92,196.51,396.86,202.28,396.89z"/>
        <path fill="#EFEDC8" d="M229.72,396.89c5.77-0.029,11.93,0.03,18.08,0.41c-2.01,1.45-3.5,3.59-4.12,6.07
        c-4.6-0.34-9.7-0.58-15.38-0.72C228.55,400.65,229.03,398.72,229.72,396.89z"/>
        <path fill="#EFEDC8" d="M280.04,404.5c0.03,0.49,0.04,0.98,0.04,1.48c0,1.81-0.18,3.579-0.54,5.279
        c-4.01-1.99-8.7-3.689-14.74-5.04c0-0.08,0-0.16,0-0.239c0-2.711-1.01-5.19-2.67-7.08C268.65,400.04,274.79,401.8,280.04,404.5z"
        />
        <path fill="#D1C283" d="M280.04,404.5c7.42,3.79,13.08,9.46,15.53,17.89c-5.36-4.318-9.9-8.08-16.03-11.13
        c0.36-1.7,0.54-3.47,0.54-5.279C280.08,405.48,280.07,404.99,280.04,404.5z"/>
        <path fill="#D1C283" d="M216,397c4.14,0,8.79-0.09,13.72-0.11c-0.69,1.83-1.17,3.761-1.42,5.761
        c-3.85-0.091-7.96-0.141-12.37-0.141c-4.33,0-8.4,0.05-12.23,0.15c-0.25-2-0.73-3.93-1.42-5.771
        C207.21,396.91,211.86,397,216,397z"/>
        <path fill="#D1C283" d="M151.92,405.98c0,1.659,0.16,3.279,0.46,4.85c-7.06,3.21-11.55,7.16-15.95,11.56
        c2.45-8.43,8.11-14.1,15.53-17.89C151.93,404.99,151.92,405.48,151.92,405.98z"/>
        </g>
        </g>
        <path fill="#E95846" d="M230.33,423.5H216h-14.33c-0.648,0-1.22,0.413-1.424,1.028c-0.204,0.613,0.008,1.288,0.528,1.675
        l14.33,10.67c0.531,0.395,1.261,0.395,1.792,0l14.33-10.67c0.52-0.387,0.731-1.062,0.528-1.675
        C231.55,423.913,230.978,423.5,230.33,423.5z"/>
        </g>
    </g>
</svg>

<svg version="1.1" id="wing-owl" xmlns="http://www.w3.org/2000/svg" xmlns:xlink="http://www.w3.org/1999/xlink" x="0px" y="0px"
	 width="168.119px" height="285px" viewBox="312.5 274.5 168.119 285" enable-background="new 312.5 274.5 168.119 285"
	 xml:space="preserve">
<path display="none" fill="#DBCB89" d="M-249.238,235.528c1.843,0,1.949,12.287,1.545,31.947
	c-0.453,22.05-1.545,53.374-1.545,87.039c0,3.217,0.044,6.581,0.1,10.066c-8.58,8.581-36.489,17.217-65.48,20.445
	c-7.665,0.861-15.408,1.341-22.882,1.341s-15.217-0.48-22.881-1.341c-28.993-3.229-56.901-11.865-65.481-20.445
	c0.056-3.485,0.1-6.849,0.1-10.066c0-34.68-1.16-66.875-1.584-89.007c-0.355-18.509-0.196-29.979,1.584-29.979
	c3.911,0,10.055,3.352,20.669,20.11c10.614,16.759,31.841,14.524,67.593,14.524s56.979,2.235,67.593-14.524
	C-259.293,238.88-253.148,235.528-249.238,235.528z"/>
<path display="none" fill="#BC9345" d="M-247.641,541.497c0.338-18.117,0.162-29.313-1.597-29.313
	c-3.911,0-10.055,3.353-20.669,20.11c-10.614,16.758-31.841,14.524-67.593,14.524s-56.979,2.233-67.593-14.524
	c-10.614-16.758-16.758-20.11-20.669-20.11c-1.886,0-1.953,12.87-1.516,33.343c0.469,21.966,1.516,52.683,1.516,85.645
	c0,3.218-0.044,6.58-0.1,10.065c-0.226,12.504-0.739,26.613-0.738,41.265c0.002,24.462,1.437,50.428,8.033,72.929
	c10.155,34.726,32.612,61.203,81.067,61.203s70.911-26.479,81.079-61.203c6.904-23.576,8.146-50.958,8.013-76.428
	c-0.07-13.395-0.521-26.26-0.729-37.766c-0.056-3.485-0.1-6.849-0.1-10.065C-249.238,596.141-248.055,563.646-247.641,541.497z"/>
<path display="none" fill="#DBCB89" d="M-48.324,536c-0.01-6.277-0.235-12.198-0.546-17.546c-0.107-1.757-0.213-3.447-0.33-5.069
	c-2.913-40.865-9.226-103.017-21.365-103.017s-12.625,30.59-20.394,33.504c-7.769,2.913-36.874,5.72-46.614,5.826
	c-27.677,0.282-52.684,2.671-55.354,0c-2.671-2.67-22.336-28.162-28.648-28.162c-3.6,0-6.41,15.001-6.72,37.799
	c-0.233,17.18,0.953,38.788,4.292,61.741c0.106,0.71,0.204,1.418,0.31,2.127h0.01c7.593,51.084,24.449,122.157,92.018,122.54
	c2.95,0.017,5.997-0.103,9.145-0.362C-58.548,640.085-48.256,579.5-48.324,536z"/>
<path display="none" fill="#DBCB89" d="M-466.219,845.594c-0.092-13.709-1.934-27.901-3.872-29.84
	c-4.227-2.645-8.629-4.898-13.3-6.8c-10.52-34.06-31.436-47.028-49.665-51.885c3.214-4.601,5.095-10.189,5.095-16.235
	c0-15.696-12.721-28.418-28.418-28.418c-15.697,0-28.418,12.722-28.418,28.418c0,6.046,1.88,11.636,5.095,16.235
	c-18.229,4.846-39.134,17.825-49.665,51.885c-4.671,1.901-9.073,4.155-13.3,6.8c-1.828,1.828-3.426,14.925-3.542,28.251
	c-0.13,14.924,1.598,30.136,6.942,30.136h0.514c0,0-0.4,8.765-0.514,14.467c-0.94,47.382,5.198,92.056,14.685,105.405
	c13.951,19.636,41.335,19.118,68.203,19.118s54.253,0.518,68.204-19.118c9.486-13.351,15.625-58.023,14.684-105.405
	c-0.113-5.702-0.591-15.909-0.591-15.909s0.905-0.17,1.24-0.17C-467.783,872.527-466.127,859.303-466.219,845.594z"/>
<path display="none" fill="#9CD6C4" d="M-466.217,518.999c-0.065-13.809-1.921-28.212-3.874-30.165
	c-4.227-2.645-8.629-4.898-13.3-6.8c-10.52-34.061-31.436-47.028-49.665-51.886c3.214-4.6,5.095-10.188,5.095-16.234
	c0-15.697-12.721-28.418-28.418-28.418c-15.697,0-28.418,12.721-28.418,28.418c0,6.046,1.88,11.636,5.095,16.234
	c-18.229,4.846-39.134,17.825-49.665,51.886c-4.671,1.9-9.073,4.155-13.3,6.8c-1.916,1.916-3.579,16.205-3.549,30.166
	c0.031,14.282,1.833,28.221,6.949,28.221h0.514l0.147-2.696c2.531-8.712,8.38-14.57,16.048-18.487
	c5.425-2.79,11.77-4.608,18.508-5.787c4.805-0.837,9.807-1.354,14.809-1.653c6.355-0.393,12.721-0.454,18.683-0.424
	c5.095,0.021,9.9,0.114,14.178,0.114c4.278,0,9.083-0.093,14.178-0.114c5.963-0.03,12.328,0.031,18.683,0.424
	c5.002,0.3,10.003,0.816,14.809,1.653c6.738,1.179,13.083,2.997,18.508,5.787c7.667,3.917,13.517,9.775,16.048,18.487l0.071,1.254
	c0,0,0.905-0.169,1.24-0.169C-467.823,545.608-466.153,532.592-466.217,518.999z"/>
<path display="none" fill="#E5E3C0" d="M-466.219,325.73c-0.092-13.709-1.934-27.902-3.872-29.84c-4.227-2.646-8.629-4.898-13.3-6.8
	c-18.177-7.451-40.519-9.734-72.988-9.734c-32.469,0-54.811,2.284-72.988,9.734c-4.671,1.901-9.073,4.154-13.3,6.8
	c-1.97,1.971-3.673,17.032-3.542,31.362c0.127,13.854,1.969,27.024,6.942,27.024h0.514l0.147-2.697
	c2.531-8.711,8.38-14.57,16.048-18.487c-0.031,0.506-0.042,1.013-0.042,1.529c0,14.839,12.029,26.868,26.868,26.868
	s26.868-12.029,26.868-26.868c0-3.307-0.599-6.469-1.695-9.394c5.095,0.021,9.9,0.114,14.178,0.114
	c4.278,0,9.083-0.093,14.178-0.114c-1.095,2.925-1.695,6.086-1.695,9.394c0,14.839,12.029,26.868,26.868,26.868
	c14.839,0,26.868-12.029,26.868-26.868c0-0.517-0.01-1.023-0.041-1.529c7.667,3.917,13.517,9.775,16.048,18.487l0.071,1.254
	c0,0,0.905-0.169,1.24-0.169C-467.783,352.664-466.127,339.439-466.219,325.73z"/>
<path display="none" fill="#5B5221" d="M-466.219,240.005c-0.092-13.709-1.934-27.902-3.872-29.84
	c-4.227-2.646-8.629-4.899-13.3-6.8c-18.177-7.451-40.519-9.734-72.988-9.734c-32.469,0-54.811,2.284-72.988,9.734
	c-4.671,1.901-9.073,4.154-13.3,6.8c-1.935,1.935-3.612,16.493-3.547,30.586c0.065,14.133,1.882,27.799,6.947,27.799h0.514
	l0.147-2.697c2.531-8.711,8.38-14.57,16.048-18.487c5.425-2.791,11.77-4.609,18.508-5.787c-1.715,1.953-2.759,4.516-2.759,7.316
	c0,6.118,4.96,11.078,11.078,11.078c6.117,0,11.078-4.96,11.078-11.078c0-3.7-1.809-6.965-4.588-8.97
	c6.355-0.392,12.721-0.454,18.683-0.423c5.095,0.021,9.9,0.113,14.178,0.113c4.278,0,9.083-0.093,14.178-0.113
	c5.963-0.031,12.328,0.031,18.683,0.423c-2.78,2.005-4.588,5.271-4.588,8.97c0,6.118,4.96,11.078,11.078,11.078
	c6.118,0,11.078-4.96,11.078-11.078c0-2.8-1.043-5.363-2.759-7.316c6.738,1.178,13.083,2.997,18.508,5.787
	c7.667,3.917,13.517,9.776,16.048,18.487l0.071,1.254c0,0,0.905-0.169,1.24-0.169C-467.783,266.938-466.127,253.714-466.219,240.005
	z"/>
<path display="none" fill="#7FBB7E" d="M-540.685,158.977c-5.125,7.368-13.661,12.184-23.323,12.184
	c-9.662,0-18.198-4.816-23.323-12.184c-3.214-4.599-5.095-10.189-5.095-16.234c0-15.697,12.721-28.418,28.418-28.418
	c15.697,0,28.418,12.721,28.418,28.418C-535.589,148.788-537.47,154.378-540.685,158.977z M-466.218,106.251
	c-0.078-13.764-1.927-28.072-3.873-30.019c-4.227-2.646-8.629-4.898-13.3-6.799c-18.177-7.451-40.519-9.735-72.988-9.735
	c-32.469,0-54.811,2.284-72.988,9.735c-4.671,1.901-9.073,4.154-13.3,6.799c-1.938,1.938-3.617,16.535-3.547,30.646
	c0.07,14.111,1.889,27.74,6.947,27.74h0.514l0.147-2.697c2.531-8.711,8.38-14.57,16.048-18.487
	c5.425-2.791,11.77-4.609,18.508-5.787c4.805-0.837,9.807-1.354,14.809-1.654c6.355-0.393,12.721-0.455,18.683-0.423
	c5.095,0.021,9.9,0.114,14.178,0.114c4.278,0,9.083-0.093,14.178-0.114c5.963-0.031,12.328,0.031,18.683,0.423
	c5.002,0.3,10.003,0.816,14.809,1.654c6.738,1.178,13.083,2.997,18.508,5.787c7.667,3.917,13.517,9.776,16.048,18.487l0.071,1.254
	c0,0,0.905-0.169,1.24-0.169C-467.805,133.007-466.141,119.896-466.218,106.251z"/>
<path display="none" fill="#E95846" d="M-613.577,17.63c0.21,0.635-0.008,1.331-0.545,1.731l-14.809,11.026
	c-0.549,0.408-1.304,0.408-1.853,0l-14.808-11.026c-0.39-0.291-0.612-0.737-0.624-1.204c-0.004-0.176,0.021-0.354,0.079-0.527
	c0.209-0.636,0.801-1.063,1.471-1.063h29.617C-614.378,16.568-613.787,16.995-613.577,17.63z M-466.215,16.568h-0.007v0.007h0.007
	V16.568z"/>
<path display="none" fill="#D6A64F" d="M-480.345,569.096c0.108,5.435,0.123,10.831,0.05,16.15
	c-0.562,41.063-6.335,77.435-14.734,89.254c-13.951,19.635-41.335,19.118-68.203,19.118c-26.868,0-54.253,0.517-68.204-19.118
	c-8.364-11.771-14.125-47.887-14.727-88.74c-0.081-5.484-0.069-11.056,0.042-16.664c12.163,8.258,49.303,18.084,82.888,18.084
	S-492.508,577.354-480.345,569.096z M-466.215,645.74h-0.007v0.008h0.007V645.74z"/>
<path display="none" fill="#E95846" d="M-396.379,96.89c0.277,0.584,0.192,1.279-0.217,1.779l-13.966,17.072
	c-0.318,0.39-0.794,0.614-1.297,0.614s-0.979-0.225-1.297-0.614l-13.966-17.072c-0.238-0.291-0.366-0.648-0.377-1.011
	c-0.008-0.26,0.045-0.524,0.161-0.768c0.277-0.584,0.868-0.958,1.514-0.958h13.965h13.966
	C-397.247,95.932-396.656,96.306-396.379,96.89z M-247.5,104.932h-0.007v0.007h0.007V104.932z"/>
<path display="none" fill="#5B5221" d="M-415.522,136.952c6.614,0,11.977,5.362,11.977,11.977c0,6.614-5.363,11.977-11.977,11.977
	s-11.978-5.363-11.978-11.977C-427.5,142.314-422.136,136.952-415.522,136.952z M-394.234,148.928
	c0,6.614,5.364,11.978,11.978,11.978c6.614,0,11.977-5.363,11.977-11.978c0-6.614-5.362-11.977-11.977-11.977
	C-388.871,136.952-394.234,142.314-394.234,148.928z M-247.5,148.925h-0.007v0.007h0.007V148.925z"/>
<path display="none" fill="#E1DFBD" d="M-398.452,168.142c16.044,0,29.048,13.004,29.048,29.048
	c0,16.043-13.004,29.048-29.048,29.048c-16.043,0-29.048-13.005-29.048-29.048C-427.5,181.146-414.495,168.142-398.452,168.142z
	 M-324.714,168.142c16.044,0,29.048,13.004,29.048,29.048c0,16.043-13.004,29.048-29.048,29.048
	c-16.043,0-29.048-13.005-29.048-29.048C-353.762,181.146-340.757,168.142-324.714,168.142z M-247.5,192.072h-0.007v0.007h0.007
	V192.072z"/>
<path display="none" fill="#D6A64F" d="M-267.417,400.866c-5.048,33.005-10.018,77.642-26.483,111.317
	c-22.03-16.563-47.496-67.341-41.511-102.236C-306.292,411.667-277.324,407.873-267.417,400.866z M-427.5,401.11
	c5.632,32.911,11.39,77.452,28.46,110.831c21.722-16.95,46.287-68.168,39.685-102.953
	C-388.441,411.221-417.471,407.941-427.5,401.11z M-247.5,444.982h-0.007v0.007h0.007V444.982z"/>
<path display="none" fill="#E95846" d="M-198.463,171.781l-13.11,19.646c-0.254,0.38-0.674,0.62-1.131,0.646
	c-0.456,0.025-0.9-0.167-1.195-0.517l-14.082-16.723c-0.229-0.273-0.347-0.614-0.342-0.958c0.002-0.176,0.037-0.353,0.105-0.522
	c0.201-0.501,0.66-0.848,1.196-0.906l27.191-2.923c0.563-0.061,1.108,0.208,1.402,0.693
	C-198.136,170.702-198.149,171.31-198.463,171.781z M-48.323,180.792h-0.007v0.007h0.007V180.792z"/>
<path display="none" fill="#5B5221" d="M-217.912,198.13c5.749,0,10.41,4.661,10.41,10.41s-4.661,10.411-10.41,10.411
	s-10.411-4.662-10.411-10.411S-223.661,198.13-217.912,198.13z M-199.408,208.54c0,5.749,4.662,10.411,10.411,10.411
	s10.411-4.662,10.411-10.411s-4.662-10.41-10.411-10.41S-199.408,202.791-199.408,208.54z M-48.323,208.537h-0.007v0.007h0.007
	V208.537z"/>
<path display="none" fill="#E1DFBD" d="M-203.074,229.669c13.945,0,25.249,11.303,25.249,25.249c0,13.945-11.304,25.25-25.249,25.25
	c-13.945,0-25.25-11.304-25.25-25.25C-228.323,240.973-217.019,229.669-203.074,229.669z M-138.979,229.669
	c13.946,0,25.25,11.303,25.25,25.249c0,13.945-11.304,25.25-25.25,25.25c-13.945,0-25.25-11.304-25.25-25.25
	C-164.229,240.973-152.925,229.669-138.979,229.669z M-48.323,254.915h-0.007v0.007h0.007V254.915z"/>
<path display="none" fill="#E5AEA9" d="M-48.87,383.561h-0.009c-66.668,35.262-137.726,26.9-174.803,4.749h-0.01
	c-0.106-0.709-0.204-1.417-0.31-2.127c-3.238-22.264-4.452-43.263-4.309-60.183c0.2-23.671,3.056-39.358,6.737-39.358
	c6.313,0,25.978,25.492,28.648,28.163c2.67,2.67,27.677,0.282,55.354,0c9.741-0.106,38.845-2.914,46.614-5.827
	c7.769-2.914,8.254-33.504,20.394-33.504c9.21,0,15.066,35.775,18.628,70.887c1.133,11.168,2.034,22.269,2.737,32.13
	C-49.083,380.113-48.977,381.803-48.87,383.561z M-48.323,300.886h-0.007v0.007h0.007V300.886z"/>
<g>
	<path fill="#BC9345" d="M477.5,393.5c0-57,3.5-106.5,0-106.5s-9,3-18.5,18s-28.5,13-60.5,13s-51,2-60.5-13s-15-18-18.5-18
		s0,49.5,0,106.5c0,2.88-0.04,5.89-0.09,9.01c-0.54,29.88-2.91,70.01,6.53,102.21c9.09,31.08,29.189,54.78,72.56,54.78
		s63.47-23.7,72.57-54.78c9.43-32.2,7.06-72.33,6.52-102.21C477.54,399.39,477.5,396.38,477.5,393.5z"/>
	<path fill="#B78F43" d="M463.17,524.29c-11.36,20.93-31,35.21-64.67,35.21s-53.32-14.29-64.67-35.22
		C360.67,547.33,412.35,569.89,463.17,524.29z"/>
	<path fill="#DBCB89" d="M477.5,287c-3.5,0-9,3-18.5,18s-28.5,13-60.5,13s-51,2-60.5-13s-15-18-18.5-18s0,49.5,0,106.5
		c0,2.88-0.04,5.89-0.09,9.01c7.68,7.681,32.66,15.41,58.609,18.3c6.86,0.771,13.79,1.2,20.48,1.2s13.62-0.43,20.48-1.2
		c25.948-2.89,50.93-10.619,58.608-18.3c-0.05-3.12-0.09-6.13-0.09-9.01C477.5,336.5,481,287,477.5,287z"/>
	<path fill="#DFD095" d="M477.5,287c1.84,0,1.75,13.69,1.25,34.96c-0.96-4.49-3.83-17.29-5.75-17.29c-2.33,0-12.33,6.33-17,15
		c-4.67,8.66-43,5.33-57.5,5.33s-33.5,1.67-50.12-3c-16.61-4.67-18.71-19.33-22.38-19.33c-3.22,0-6.99,5.63-7.87,13.98
		c-0.38-18.21-0.31-29.65,1.37-29.65c3.5,0,9,3,18.5,18s28.5,13,60.5,13s51,2,60.5-13S474,287,477.5,287z"/>
	<g>
		<path fill="#D6A64F" d="M477.59,402.51c0.54,29.88,2.91,70.01-6.52,102.21c-21.94-11.278-52.09-52.22-52.09-83.91
			C444.93,417.92,469.91,410.19,477.59,402.51z"/>
		<path fill="#D6A64F" d="M378.02,420.81c0,31.69-30.149,72.632-52.079,83.91c-9.44-32.2-7.07-72.33-6.53-102.21
			C327.09,410.19,352.07,417.92,378.02,420.81z"/>
	</g>
	<g>
		<circle fill="#FAF3E6" cx="356.3" cy="373.68" r="26"/>
		<circle fill="#FAF3E6" cx="440.7" cy="373.68" r="26"/>
	</g>
	<g id="XMLID_6_">
		<path fill="#CEA04C" d="M319.41,402.51c7.68,7.681,32.66,15.41,58.609,18.3c0,3.32-0.329,6.75-0.949,10.23
			c-24.67-2.64-45.04-10.17-57.87-18.94C319.28,408.8,319.35,405.6,319.41,402.51z"/>
		<path fill="#CEA04C" d="M477.59,402.51c0.062,3.57,0.16,7.29,0.25,11.12c-19.84,9.23-39.47,14.521-58,16.89
			c-0.56-3.3-0.858-6.55-0.858-9.71C444.93,417.92,469.91,410.19,477.59,402.51z"/>
		<path fill="#B78F43" d="M377.07,431.04c3.34,0.36,6.76,0.63,10.25,0.8c-8.561,49.34-42.391,76.79-58.54,81.37
			c-1.05-2.75-1.99-5.59-2.84-8.49C345.57,494.62,371.79,460.76,377.07,431.04z"/>
		<path fill="#B78F43" d="M419.84,430.52c5.062,29.842,31.48,64.04,51.23,74.2c-1.021,3.48-2.17,6.86-3.49,10.13
			c-40.23-20.608-54.64-57.358-57.51-83.33C413.29,431.28,416.54,430.95,419.84,430.52z"/>
		<path fill="#B78F43" d="M418.98,420.81c0,3.16,0.3,6.41,0.858,9.71c-3.3,0.432-6.55,0.762-9.77,1
			c-0.38-3.51-0.561-6.818-0.561-9.868v-0.012C412.66,421.45,415.83,421.16,418.98,420.81z"/>
		<path fill="#B78F43" d="M388.67,421.72c-0.33,3.472-0.79,6.84-1.35,10.12c-3.49-0.17-6.91-0.438-10.25-0.8
			c0.62-3.48,0.949-6.91,0.949-10.23C381.57,421.21,385.13,421.52,388.67,421.72z"/>
		<path fill="#B78F43" d="M409.51,421.65c0,3.05,0.181,6.358,0.561,9.868c-7.851,0.592-15.45,0.672-22.75,0.32
			c0.56-3.28,1.02-6.648,1.35-10.12c3.311,0.19,6.6,0.29,9.83,0.29C402.12,422.01,405.8,421.88,409.51,421.65z"/>
	</g>
	<circle fill="#5B5221" cx="365.3" cy="377.68" r="10.72"/>
	<circle fill="#5B5221" cx="449.7" cy="377.68" r="10.72"/>
	<path fill="#E95846" d="M411,382.9h-12.5H386c-0.579,0-1.107,0.334-1.355,0.857s-0.172,1.145,0.194,1.592l12.5,15.28
		c0.285,0.349,0.711,0.55,1.161,0.55s0.876-0.202,1.161-0.55l12.5-15.28c0.366-0.448,0.441-1.069,0.194-1.592
		C412.107,383.234,411.579,382.9,411,382.9z"/>
</g>
</svg>